<svg width="500" height="500" version="1.1" viewBox="0 0 132.29 132.29" xmlns="http://www.w3.org/2000/svg">
 <circle cx="66.146" cy="66.146" r="66.146" fill="#ffdc00" stroke-width=".13229"/>
 <g transform="translate(-7.2302 -4.2348)" style="shape-inside:url(#rect34);white-space:pre" aria-label="{GHK}">
  <path d="m20.168 72.259h-3.2808v-3.8629h3.2808v-19.579h3.2808v-3.2808h7.0908v3.81h-6.5088v19.632h-3.2808v2.6988h3.2808v19.632h6.5088v3.9158h-7.0908v-3.2808h-3.2808z" fill="#3d9970"/>
  <g fill="#b10dc9">
   <path d="m38.319 85.33h-3.3338v-30.004h3.3338v-3.2808h3.2808v-3.2279h10.372v3.2279h3.2279v3.2808h3.2808v7.1438h-3.81v-6.5617h-3.2808v-3.2808h-9.2604v3.2808h-3.2279v28.893h3.2279v3.2279h9.2604v-3.2279h3.2808v-12.541h-9.8425v-3.8629h13.653v16.933h-3.2808v3.2808h-3.2279v3.3338h-10.372v-3.3338h-3.2808z"/>
   <path d="m61.443 48.817h3.9158v19.579h15.769v-19.579h3.81v43.127h-3.81v-19.685h-15.769v19.685h-3.9158z"/>
   <path d="m87.902 48.817h3.9158v16.351h2.6988v-3.2808h3.2279v-3.2808h3.2808v-3.2808h3.2808v-3.2808h3.2808v-3.2279h3.81v3.81h-3.2808v3.2808h-3.2279v3.2808h-3.2808v3.2808h-3.2808v3.2279h-3.2808v5.9796h3.2808v3.2808h3.2808v3.2808h3.2808v6.5617h3.2279v3.2279h3.2808v3.9158h-3.81v-3.3338h-3.2808v-3.2808h-3.2808v-6.5088h-3.2808v-3.2808h-3.2279v-3.2808h-2.6988v19.685h-3.9158z"/>
  </g>
  <path d="m122.72 91.309v-19.632h3.2808v-2.6988h-3.2808v-19.632h-6.5088v-3.81h7.0908v3.2808h3.2808v19.579h3.2808v3.8629h-3.2808v19.685h-3.2808v3.2808h-7.0908v-3.9158z" fill="#3d9970"/>
 </g>
 <g stroke-width=".26458" aria-label="&lt;Software&gt;">
  <path d="m40.651 100.71h-0.66675v-0.77258h0.66675v-0.65616h1.3017v-0.65616h0.65616v-0.64558h1.3123v-0.65616h0.762v0.762h-0.65616v0.65616h-1.3017v0.65616h-0.65616v0.65617h-1.3017v0.53975h1.3017v0.65616h0.65616v0.65616h1.3017v0.64559h0.65616v0.78316h-0.762v-0.66675h-1.3123v-0.65616h-0.65616v-0.65617h-1.3017z" fill="#7fdbff" stroke-width=".26458"/>
  <g fill="#be01ff">
   <path d="m45.942 102.01h-0.66675v-1.4182h0.78316v1.3123h0.64558v0.64559h1.8521v-0.64559h0.65616v-1.8521h-0.65616v-0.65617h-1.9579v-0.65616h-0.65616v-0.65616h-0.66675v-2.0743h0.66675v-0.65616h0.65616v-0.64558h2.0743v0.64558h0.64558v0.65616h0.65616v1.4287h-0.762v-1.3123h-0.65616v-0.65616h-1.8521v0.65616h-0.64558v1.8521h0.64558v0.64558h1.9685v0.65616h0.64558v0.65616h0.65616v2.0743h-0.65616v0.65616h-0.64558v0.66675h-2.0743v-0.66675h-0.65616z"/>
   <path d="m51.234 102.01h-0.66675v-3.3867h0.66675v-0.64558h0.65616v-0.65616h2.0743v0.65616h0.64558v0.64558h0.65616v3.3867h-0.65616v0.65616h-0.64558v0.66675h-2.0743v-0.66675h-0.65616zm0.762-0.10584v0.64559h1.8521v-0.64559h0.65616v-3.1644h-0.65616v-0.65616h-1.8521v0.65616h-0.64558v3.1644z"/>
   <path d="m57.51 98.084h-1.3229v-0.762h1.3229v-1.9685h0.64558v-0.64558h2.0743v0.762h-1.9579v1.8521h1.9579v0.762h-1.9579v5.2493h-0.762z"/>
   <path d="m62.802 98.084h-1.3229v-0.762h1.3229v-1.9685h0.762v1.9685h1.9579v0.762h-1.9579v4.4662h1.9579v0.78316h-2.0743v-0.66675h-0.64558z"/>
   <path d="m67.109 101.35h-0.66675v-4.0322h0.78316v3.9264h0.53975v-1.9685h0.64558v-1.9579h0.77258v1.9579h0.65616v1.9685h0.53975v-3.9264h0.762v4.0322h-0.65616v1.9791h-0.762v-1.9791h-0.65616v-1.9579h-0.53975v1.9579h-0.65616v1.9791h-0.762z"/>
   <path d="m71.734 100.59h0.66675v-0.65617h2.6141v-1.8521h-2.4977v1.3123h-0.78316v-1.4182h0.66675v-0.65616h2.7305v0.65616h0.64558v4.572h0.65616v0.78316h-0.762v-0.66675h-1.1959v0.66675h-2.0743v-0.66675h-0.66675zm2.6247 1.9579v-0.64559h0.65616v-1.1959h-2.4977v1.8415z"/>
   <path d="m77.682 97.322h0.762v0.65616h0.53975v-0.65616h2.0743v0.762h-1.9579v0.65616h-0.65616v4.5932h-0.762z"/>
   <path d="m82.984 102.01h-0.66675v-3.3867h0.66675v-0.64558h0.65616v-0.65616h2.0743v0.65616h0.64558v0.64558h0.65616v2.0849h-3.9158v1.1959h0.64558v0.64559h1.8521v-0.64559h0.65616v-0.65616h0.762v0.762h-0.65616v0.65616h-0.64558v0.66675h-2.0743v-0.66675h-0.65616zm3.2702-2.0743v-1.1959h-0.65616v-0.65616h-1.8521v0.65616h-0.64558v1.1959z"/>
  </g>
  <path d="m87.609 102.55h0.66675v-0.64559h1.3017v-0.65616h0.65616v-0.65616h1.3123v-0.53975h-1.3123v-0.65617h-0.65616v-0.65616h-1.3017v-0.65616h-0.66675v-0.762h0.78316v0.65616h1.3017v0.64558h0.65616v0.65616h1.3017v0.65616h0.65616v0.77258h-0.65616v0.64558h-1.3017v0.65617h-0.65616v0.65616h-1.3017v0.66675h-0.78316z" fill="#7fdbff" stroke-width=".26458"/>
 </g>
</svg>
